<mxfile modified="2022-07-14T19:46:27.390Z" host="app.diagrams.net" agent="5.0 (Windows NT 10.0; Win64; x64) AppleWebKit/537.36 (KHTML, like Gecko) Chrome/103.0.5060.114 Safari/537.36" etag="B9eXLBxMFcnluO75zGfQ" version="20.1.1" type="github">
  <diagram id="l8hXMBHkgcEJcSW0mbfh" name="Page-1">
    <mxGraphModel dx="1209" dy="559" grid="1" gridSize="10" guides="1" tooltips="1" connect="1" arrows="1" fold="1" page="1" pageScale="1" pageWidth="1169" pageHeight="827" math="0" shadow="0">
      <root>
        <mxCell id="0" />
        <mxCell id="1" parent="0" />
        <mxCell id="hn0mDO8IMqBCf_kzW8G7-31" style="edgeStyle=orthogonalEdgeStyle;rounded=0;orthogonalLoop=1;jettySize=auto;html=1;entryX=0;entryY=0.5;entryDx=0;entryDy=0;" edge="1" parent="1" source="hn0mDO8IMqBCf_kzW8G7-3" target="hn0mDO8IMqBCf_kzW8G7-24">
          <mxGeometry relative="1" as="geometry" />
        </mxCell>
        <mxCell id="hn0mDO8IMqBCf_kzW8G7-3" value="" style="sketch=0;aspect=fixed;pointerEvents=1;shadow=0;dashed=0;html=1;strokeColor=none;labelPosition=center;verticalLabelPosition=bottom;verticalAlign=top;align=center;fillColor=#00188D;shape=mxgraph.mscae.enterprise.android_phone" vertex="1" parent="1">
          <mxGeometry x="210" y="223.33" width="40" height="66.67" as="geometry" />
        </mxCell>
        <mxCell id="hn0mDO8IMqBCf_kzW8G7-9" style="edgeStyle=orthogonalEdgeStyle;rounded=0;orthogonalLoop=1;jettySize=auto;html=1;entryX=0.5;entryY=1;entryDx=0;entryDy=0;entryPerimeter=0;" edge="1" parent="1" source="hn0mDO8IMqBCf_kzW8G7-5" target="hn0mDO8IMqBCf_kzW8G7-3">
          <mxGeometry relative="1" as="geometry" />
        </mxCell>
        <mxCell id="hn0mDO8IMqBCf_kzW8G7-5" value="" style="html=1;verticalLabelPosition=bottom;align=center;labelBackgroundColor=#ffffff;verticalAlign=top;strokeWidth=2;strokeColor=#0080F0;shadow=0;dashed=0;shape=mxgraph.ios7.icons.microphone;" vertex="1" parent="1">
          <mxGeometry x="320" y="335" width="20" height="40" as="geometry" />
        </mxCell>
        <mxCell id="hn0mDO8IMqBCf_kzW8G7-17" value="Speech to text" style="text;html=1;resizable=0;autosize=1;align=center;verticalAlign=middle;points=[];fillColor=none;strokeColor=none;rounded=0;" vertex="1" parent="1">
          <mxGeometry x="280" y="385" width="100" height="30" as="geometry" />
        </mxCell>
        <mxCell id="hn0mDO8IMqBCf_kzW8G7-18" value="Blind" style="text;html=1;resizable=0;autosize=1;align=center;verticalAlign=middle;points=[];fillColor=none;strokeColor=none;rounded=0;" vertex="1" parent="1">
          <mxGeometry x="442.5" y="380" width="50" height="30" as="geometry" />
        </mxCell>
        <mxCell id="hn0mDO8IMqBCf_kzW8G7-19" value="(Alan Button activated&lt;br&gt;by &lt;b&gt;HeyAlan&lt;/b&gt; voice command)" style="text;html=1;resizable=0;autosize=1;align=center;verticalAlign=middle;points=[];fillColor=none;strokeColor=none;rounded=0;" vertex="1" parent="1">
          <mxGeometry x="390" y="400" width="180" height="40" as="geometry" />
        </mxCell>
        <mxCell id="hn0mDO8IMqBCf_kzW8G7-21" value="Smart Phone" style="text;html=1;resizable=0;autosize=1;align=center;verticalAlign=middle;points=[];fillColor=none;strokeColor=none;rounded=0;" vertex="1" parent="1">
          <mxGeometry x="120" y="250" width="90" height="30" as="geometry" />
        </mxCell>
        <mxCell id="hn0mDO8IMqBCf_kzW8G7-22" value="Input Image" style="text;html=1;resizable=0;autosize=1;align=center;verticalAlign=middle;points=[];fillColor=none;strokeColor=none;rounded=0;" vertex="1" parent="1">
          <mxGeometry x="271" y="180" width="90" height="30" as="geometry" />
        </mxCell>
        <mxCell id="hn0mDO8IMqBCf_kzW8G7-23" value="Text to Speech" style="text;html=1;resizable=0;autosize=1;align=center;verticalAlign=middle;points=[];fillColor=none;strokeColor=none;rounded=0;" vertex="1" parent="1">
          <mxGeometry x="280" y="270" width="100" height="30" as="geometry" />
        </mxCell>
        <mxCell id="hn0mDO8IMqBCf_kzW8G7-34" style="edgeStyle=orthogonalEdgeStyle;rounded=0;orthogonalLoop=1;jettySize=auto;html=1;entryX=0.5;entryY=0;entryDx=0;entryDy=0;entryPerimeter=0;" edge="1" parent="1" source="hn0mDO8IMqBCf_kzW8G7-25" target="hn0mDO8IMqBCf_kzW8G7-3">
          <mxGeometry relative="1" as="geometry">
            <mxPoint x="230" y="164" as="targetPoint" />
          </mxGeometry>
        </mxCell>
        <mxCell id="hn0mDO8IMqBCf_kzW8G7-25" value="" style="shape=image;verticalLabelPosition=bottom;verticalAlign=top;imageAspect=0;aspect=fixed;image=data:image/svg+xml,PHN2ZyB4bWxucz0iaHR0cDovL3d3dy53My5vcmcvMjAwMC9zdmciIHZlcnNpb249IjEiIHZpZXdCb3g9IjAgMCA0OCA0OCIgZW5hYmxlLWJhY2tncm91bmQ9Im5ldyAwIDAgNDggNDgiPiYjeGE7ICAgIDxwYXRoIGZpbGw9IiNGNTdDMDAiIGQ9Ik00MCw0MUg4Yy0yLjIsMC00LTEuOC00LTRWMTFjMC0yLjIsMS44LTQsNC00aDMyYzIuMiwwLDQsMS44LDQsNHYyNkM0NCwzOS4yLDQyLjIsNDEsNDAsNDF6Ii8+JiN4YTsgICAgPGNpcmNsZSBmaWxsPSIjRkZGOUM0IiBjeD0iMzUiIGN5PSIxNiIgcj0iMyIvPiYjeGE7ICAgIDxwb2x5Z29uIGZpbGw9IiM5NDJBMDkiIHBvaW50cz0iMjAsMTYgOSwzMiAzMSwzMiIvPiYjeGE7ICAgIDxwb2x5Z29uIGZpbGw9IiNCRjM2MEMiIHBvaW50cz0iMzEsMjIgMjMsMzIgMzksMzIiLz4mI3hhOzwvc3ZnPg==" vertex="1" parent="1">
          <mxGeometry x="292" y="140" width="48" height="48" as="geometry" />
        </mxCell>
        <mxCell id="hn0mDO8IMqBCf_kzW8G7-33" style="edgeStyle=orthogonalEdgeStyle;rounded=0;orthogonalLoop=1;jettySize=auto;html=1;exitX=1;exitY=0.5;exitDx=0;exitDy=0;entryX=0.5;entryY=0;entryDx=0;entryDy=0;entryPerimeter=0;" edge="1" parent="1" source="hn0mDO8IMqBCf_kzW8G7-24" target="hn0mDO8IMqBCf_kzW8G7-27">
          <mxGeometry relative="1" as="geometry" />
        </mxCell>
        <mxCell id="hn0mDO8IMqBCf_kzW8G7-24" value="" style="shape=image;verticalLabelPosition=bottom;verticalAlign=top;imageAspect=0;aspect=fixed;image=data:image/svg+xml,PHN2ZyB4bWxucz0iaHR0cDovL3d3dy53My5vcmcvMjAwMC9zdmciIHZlcnNpb249IjEiIHZpZXdCb3g9IjAgMCA0OCA0OCIgZW5hYmxlLWJhY2tncm91bmQ9Im5ldyAwIDAgNDggNDgiPiYjeGE7ICAgIDxwYXRoIGZpbGw9IiM4MUQ0RkEiIGQ9Ik0yOCw3LjF2MmM3LjMsMSwxMyw3LjMsMTMsMTQuOXMtNS43LDEzLjktMTMsMTQuOXYyYzguNC0xLDE1LTguMiwxNS0xNi45UzM2LjQsOC4xLDI4LDcuMXoiLz4mI3hhOyAgICA8cGF0aCBmaWxsPSIjNTQ2RTdBIiBkPSJNMTQsMzJIN2MtMS4xLDAtMi0wLjktMi0yVjE4YzAtMS4xLDAuOS0yLDItMmg3VjMyeiIvPiYjeGE7ICAgIDxwb2x5Z29uIGZpbGw9IiM3ODkwOUMiIHBvaW50cz0iMjYsNDIgMTQsMzIgMTQsMTYgMjYsNiIvPiYjeGE7ICAgIDxwYXRoIGZpbGw9IiMwM0E5RjQiIGQ9Ik0yOCwxNy4zdjIuMWMxLjgsMC44LDMsMi41LDMsNC42cy0xLjIsMy44LTMsNC42djIuMWMyLjktMC45LDUtMy41LDUtNi43UzMwLjksMTguMiwyOCwxNy4zeiIvPiYjeGE7ICAgIDxwYXRoIGZpbGw9IiM0RkMzRjciIGQ9Ik0yOCwxMi4ydjJjNC42LDAuOSw4LDUsOCw5LjhzLTMuNCw4LjktOCw5Ljh2MmM1LjctMSwxMC01LjksMTAtMTEuOFMzMy43LDEzLjEsMjgsMTIuMnoiLz4mI3hhOzwvc3ZnPg==" vertex="1" parent="1">
          <mxGeometry x="309.66" y="236.33" width="40.67" height="40.67" as="geometry" />
        </mxCell>
        <mxCell id="hn0mDO8IMqBCf_kzW8G7-37" style="edgeStyle=orthogonalEdgeStyle;rounded=0;orthogonalLoop=1;jettySize=auto;html=1;" edge="1" parent="1" source="hn0mDO8IMqBCf_kzW8G7-27" target="hn0mDO8IMqBCf_kzW8G7-5">
          <mxGeometry relative="1" as="geometry" />
        </mxCell>
        <mxCell id="hn0mDO8IMqBCf_kzW8G7-27" value="" style="outlineConnect=0;dashed=0;verticalLabelPosition=bottom;verticalAlign=top;align=center;html=1;shape=mxgraph.aws3.user;fillColor=#D2D3D3;gradientColor=none;" vertex="1" parent="1">
          <mxGeometry x="450" y="332.5" width="35" height="45" as="geometry" />
        </mxCell>
        <mxCell id="hn0mDO8IMqBCf_kzW8G7-35" value="" style="edgeStyle=orthogonalEdgeStyle;rounded=0;orthogonalLoop=1;jettySize=auto;html=1;entryX=1.017;entryY=0.603;entryDx=0;entryDy=0;entryPerimeter=0;endArrow=none;" edge="1" parent="1" target="hn0mDO8IMqBCf_kzW8G7-27">
          <mxGeometry relative="1" as="geometry">
            <mxPoint x="492.27272727272725" y="360" as="sourcePoint" />
            <mxPoint x="340.3399999999999" y="359.12" as="targetPoint" />
          </mxGeometry>
        </mxCell>
      </root>
    </mxGraphModel>
  </diagram>
</mxfile>
